<?xml version="1.0" encoding="utf-8"?>
<!-- Generator: Adobe Illustrator 16.0.0, SVG Export Plug-In . SVG Version: 6.00 Build 0)  -->
<!DOCTYPE svg PUBLIC "-//W3C//DTD SVG 1.1//EN" "http://www.w3.org/Graphics/SVG/1.1/DTD/svg11.dtd">
<svg version="1.1" id="图层_1" xmlns="http://www.w3.org/2000/svg" xmlns:xlink="http://www.w3.org/1999/xlink" x="0px" y="0px"
	 width="24px" height="48px" viewBox="0 0 24 48" enable-background="new 0 0 24 48" xml:space="preserve">
<g>
	<g>
		<g>
			<path fill="#DCDDDD" d="M12,3.829l8,8V21h-4v-5l-2-2h-4l-2,2v5H4v-9.171L12,3.829 M12,1L2,11v12h8v-7h4v7h8V11L12,1L12,1z"/>
		</g>
	</g>
</g>
<g>
	<g>
		<g>
			<path fill="#FF7432" d="M12,27.828l8,8V45h-4v-5l-2-2h-4l-2,2v5H4v-9.172L12,27.828 M12,25L2,35v12h8v-7h4v7h8V35L12,25L12,25z"
				/>
		</g>
	</g>
</g>
</svg>
