<?xml version="1.0" encoding="utf-8"?>
<!-- Generator: Adobe Illustrator 16.0.0, SVG Export Plug-In . SVG Version: 6.00 Build 0)  -->
<!DOCTYPE svg PUBLIC "-//W3C//DTD SVG 1.1//EN" "http://www.w3.org/Graphics/SVG/1.1/DTD/svg11.dtd">
<svg version="1.1" id="图层_1" xmlns="http://www.w3.org/2000/svg" xmlns:xlink="http://www.w3.org/1999/xlink" x="0px" y="0px"
	 width="24px" height="48px" viewBox="0 0 24 48" enable-background="new 0 0 24 48" xml:space="preserve">
<g>
	<g>
		<g>
			<path fill="#DCDDDD" d="M12,3.829l8,8V21h-4v-5l-2-2h-4l-2,2v5H4v-9.171L12,3.829 M12,1L2,11v12h8v-7h4v7h8V11L12,1L12,1z"/>
		</g>
	</g>
</g>
<g>
	<g>
		<g>
			<path fill="#FF7432" d="M12,27.828l8,8V45h-4v-5l-2-2h-4l-2,2v5H4v-9.172L12,27.828 M12,25L2,35v12h8v-7h4v7h8V35L12,25L12,25z"
				/>
		</g>
	</g>
</g>
<path display="none" fill="#ED7137" d="M20.063,36.544c-0.275,0-0.545,0.03-0.805,0.084l-2.238-2.837
	c1.578-0.819,2.674-2.454,2.674-4.354c0-2.713-2.209-4.922-4.924-4.922c-2.714,0-4.922,2.207-4.922,4.922
	c0,1.492,0.681,2.814,1.731,3.719l-3.107,3.107c-0.776-0.375-1.644-0.592-2.563-0.592c-3.258,0-5.908,2.65-5.908,5.908
	s2.65,5.906,5.908,5.906s5.908-2.648,5.908-5.906c0-1.621-0.657-3.091-1.717-4.158l3.282-3.283c0.443,0.131,0.902,0.223,1.389,0.223
	c0.061,0,0.117-0.016,0.178-0.018l2.523,3.198c-0.818,0.722-1.348,1.767-1.348,2.942c0,2.173,1.768,3.938,3.938,3.938
	c2.172,0,3.938-1.766,3.938-3.938C24.001,38.312,22.235,36.544,20.063,36.544z M5.909,45.517c-2.172,0-3.938-1.767-3.938-3.938
	s1.767-3.938,3.938-3.938c2.171,0,3.938,1.767,3.938,3.938S8.081,45.517,5.909,45.517z M14.771,32.392
	c-1.629,0-2.954-1.326-2.954-2.955c0-1.627,1.325-2.953,2.954-2.953s2.953,1.324,2.953,2.953S16.399,32.392,14.771,32.392z
	 M20.063,42.452c-1.086,0-1.971-0.885-1.971-1.971c0-0.727,0.4-1.354,0.988-1.695c0.074-0.033,0.146-0.072,0.221-0.119
	c0.234-0.1,0.49-0.152,0.762-0.152c1.086,0,1.969,0.883,1.969,1.969C22.032,41.567,21.149,42.452,20.063,42.452z"/>
<path display="none" fill="#DCDDDD" d="M20.063,12.544c-0.275,0-0.545,0.03-0.805,0.084l-2.238-2.837
	c1.578-0.819,2.674-2.454,2.674-4.354c0-2.713-2.209-4.922-4.924-4.922c-2.714,0-4.922,2.207-4.922,4.922
	c0,1.492,0.681,2.814,1.731,3.719l-3.107,3.107c-0.776-0.375-1.644-0.592-2.563-0.592c-3.258,0-5.908,2.65-5.908,5.908
	s2.65,5.906,5.908,5.906s5.908-2.648,5.908-5.906c0-1.621-0.657-3.091-1.717-4.158l3.282-3.283c0.443,0.131,0.902,0.223,1.389,0.223
	c0.061,0,0.117-0.016,0.178-0.018l2.523,3.198c-0.818,0.722-1.348,1.767-1.348,2.942c0,2.173,1.768,3.938,3.938,3.938
	c2.172,0,3.938-1.766,3.938-3.938C24.001,14.312,22.235,12.544,20.063,12.544z M5.909,21.517c-2.172,0-3.938-1.767-3.938-3.938
	s1.767-3.938,3.938-3.938c2.171,0,3.938,1.767,3.938,3.938S8.081,21.517,5.909,21.517z M14.771,8.392
	c-1.629,0-2.954-1.326-2.954-2.955c0-1.627,1.325-2.953,2.954-2.953s2.953,1.324,2.953,2.953S16.399,8.392,14.771,8.392z
	 M20.063,18.452c-1.086,0-1.971-0.885-1.971-1.971c0-0.727,0.4-1.354,0.988-1.695c0.074-0.033,0.146-0.072,0.221-0.119
	c0.234-0.1,0.49-0.152,0.762-0.152c1.086,0,1.969,0.883,1.969,1.969C22.032,17.567,21.149,18.452,20.063,18.452z"/>
</svg>
