<svg id="图层_1" data-name="图层 1" xmlns="http://www.w3.org/2000/svg" width="200" height="100" viewBox="0 0 200 100"><defs><style>.cls-1{fill:#40a6f4;}.cls-2{fill:#57b8ff;}</style></defs><title>待处理工单数背景</title><rect class="cls-1" width="200" height="100" rx="10.7" ry="10.7"/><path class="cls-2" d="M137.2,98.1l19.2-52.6a6,6,0,0,1,5.7-3.9,5.9,5.9,0,0,1,2,.4L200,54.9V48.5L166.1,36.2a11.9,11.9,0,0,0-4.1-.7,12,12,0,0,0-11.3,7.9L131.6,96a11.9,11.9,0,0,0-.7,4h6A5.9,5.9,0,0,1,137.2,98.1Z"/><path class="cls-2" d="M196.9,71.7l-1-.2L165.8,60.6a3,3,0,0,1,2.1-5.6l30.1,10.9A3,3,0,0,1,196.9,71.7Z"/><path class="cls-2" d="M190,90.5l-1-.2L158.9,79.3a3,3,0,0,1,2.1-5.6l30.1,10.9A3,3,0,0,1,190,90.5Z"/><path class="cls-2" d="M154.2,92.5a3,3,0,0,0-2.1,5.6l5.1,1.9h17.5Z"/></svg>