<?xml version="1.0" encoding="utf-8"?>
<!-- Generator: Adobe Illustrator 16.0.0, SVG Export Plug-In . SVG Version: 6.00 Build 0)  -->
<!DOCTYPE svg PUBLIC "-//W3C//DTD SVG 1.1//EN" "http://www.w3.org/Graphics/SVG/1.1/DTD/svg11.dtd">
<svg version="1.1" id="图层_1" xmlns="http://www.w3.org/2000/svg" xmlns:xlink="http://www.w3.org/1999/xlink" x="0px" y="0px"
	 width="130px" height="55px" viewBox="0 0 130 55" enable-background="new 0 0 130 55" xml:space="preserve">
<g>
	<g>
		<path fill="#DA632A" d="M4.996,15.941l5.729-0.428c0.124,1.115,0.376,1.954,0.761,2.54c0.625,0.94,1.524,1.413,2.687,1.413
			c0.868,0,1.541-0.242,2.009-0.722c0.468-0.479,0.703-1.042,0.703-1.682c0-0.598-0.223-1.138-0.666-1.614
			c-0.449-0.474-1.482-0.93-3.102-1.353c-2.656-0.71-4.547-1.647-5.679-2.824c-1.14-1.167-1.71-2.665-1.71-4.479
			c0-1.193,0.292-2.317,0.876-3.384C7.186,2.353,8.061,1.517,9.236,0.91C10.411,0.308,12.012,0,14.056,0
			c2.5,0,4.406,0.554,5.72,1.657c1.315,1.109,2.097,2.863,2.348,5.268L16.449,7.32c-0.157-1.051-0.477-1.821-0.965-2.3
			c-0.49-0.48-1.17-0.724-2.033-0.724c-0.709,0-1.244,0.18-1.604,0.536c-0.359,0.357-0.536,0.782-0.536,1.291
			c0,0.37,0.147,0.707,0.45,1.005c0.287,0.311,0.969,0.589,2.036,0.856c2.644,0.678,4.538,1.361,5.682,2.054
			c1.143,0.691,1.979,1.548,2.496,2.577c0.522,1.019,0.786,2.169,0.786,3.435c0,1.485-0.352,2.855-1.046,4.113
			c-0.692,1.263-1.664,2.212-2.913,2.863C17.557,23.675,15.986,24,14.091,24c-3.328,0-5.636-0.767-6.915-2.277
			C5.889,20.207,5.168,18.282,4.996,15.941z"/>
		<path fill="#DA632A" d="M36.375,0.413h6.017v13.808c0,1.377-0.179,2.668-0.542,3.885c-0.354,1.22-0.921,2.279-1.696,3.196
			c-0.764,0.911-1.572,1.552-2.42,1.919C36.565,23.741,35.154,24,33.508,24c-0.949,0-1.989-0.083-3.114-0.242
			c-1.129-0.156-2.065-0.473-2.82-0.937c-0.756-0.468-1.449-1.143-2.072-2c-0.628-0.863-1.058-1.754-1.288-2.673
			c-0.374-1.473-0.562-2.782-0.562-3.927V0.413h6.019V14.56c0,1.269,0.298,2.253,0.892,2.966c0.59,0.705,1.417,1.064,2.468,1.064
			c1.042,0,1.863-0.347,2.453-1.048c0.592-0.705,0.893-1.698,0.893-2.982V0.413H36.375z"/>
		<path fill="#DA632A" d="M43.284,0.413h5.636l7.379,12.835V0.413h5.675v23.176h-5.675l-7.34-12.77v12.77h-5.675V0.413z"/>
		<path fill="#DA632A" d="M62.865,23.589V0.413H72.92c1.86,0,3.289,0.185,4.271,0.563c0.981,0.376,1.777,1.084,2.388,2.11
			C80.18,4.118,80.48,5.37,80.48,6.849c0,1.28-0.232,2.394-0.698,3.322c-0.466,0.931-1.101,1.693-1.913,2.273
			c-0.518,0.366-1.23,0.669-2.129,0.917c0.715,0.287,1.236,0.564,1.563,0.85c0.223,0.19,0.545,0.599,0.965,1.224
			c0.418,0.619,0.699,1.095,0.846,1.435l2.936,6.718h-6.83l-3.212-7.085c-0.405-0.924-0.762-1.51-1.079-1.79
			c-0.437-0.359-0.92-0.537-1.465-0.537h-0.529v9.412L62.865,23.589L62.865,23.589z M68.932,9.823h2.535
			c0.275,0,0.809-0.108,1.594-0.322c0.398-0.09,0.723-0.331,0.976-0.727c0.252-0.385,0.378-0.835,0.378-1.335
			c0-0.752-0.197-1.32-0.598-1.724c-0.397-0.396-1.146-0.601-2.241-0.601h-2.644V9.823z"/>
		<path fill="#DA632A" d="M82.941,0.413h6.066v23.176h-6.066V0.413z"/>
		<path fill="#DA632A" d="M89.9,15.941l5.723-0.428c0.125,1.115,0.381,1.954,0.77,2.54c0.625,0.94,1.519,1.413,2.683,1.413
			c0.87,0,1.541-0.242,2.012-0.722c0.466-0.479,0.703-1.042,0.703-1.682c0-0.598-0.222-1.138-0.668-1.614
			c-0.45-0.474-1.481-0.93-3.103-1.353c-2.651-0.71-4.545-1.647-5.676-2.824c-1.139-1.167-1.711-2.665-1.711-4.479
			c0-1.193,0.291-2.317,0.875-3.384c0.586-1.058,1.461-1.893,2.635-2.5C95.313,0.308,96.92,0,98.955,0
			c2.506,0,4.41,0.554,5.729,1.657c1.313,1.109,2.095,2.863,2.342,5.268l-5.678,0.395c-0.147-1.051-0.473-1.821-0.961-2.3
			c-0.492-0.48-1.168-0.724-2.031-0.724c-0.709,0-1.246,0.18-1.604,0.536c-0.358,0.357-0.544,0.782-0.544,1.291
			c0,0.37,0.153,0.707,0.457,1.005c0.287,0.311,0.969,0.589,2.037,0.856c2.643,0.678,4.539,1.361,5.679,2.054
			c1.144,0.691,1.979,1.548,2.503,2.577c0.516,1.019,0.777,2.169,0.777,3.435c0,1.485-0.346,2.855-1.04,4.113
			c-0.692,1.263-1.668,2.212-2.915,2.863C102.461,23.675,100.891,24,98.996,24c-3.332,0-5.639-0.767-6.917-2.277
			C90.793,20.207,90.069,18.282,89.9,15.941z"/>
		<path fill="#DA632A" d="M108.553,0.413h16.148V5.35h-10.076v3.719h9.342v4.7h-9.342v4.588h10.371v5.231h-16.443V0.413z"/>
	</g>
	
		<text transform="matrix(0.99 0 0 1 4.9961 52)" fill="#B5B5B6" font-family="'MicrosoftYaHei'" font-size="14" letter-spacing="20.202">依云平台</text>
	<rect x="4.996" y="34" fill="#B5B5B6" width="120" height="2"/>
</g>
</svg>
