<?xml version="1.0" encoding="utf-8"?>
<!-- Generator: Adobe Illustrator 16.0.0, SVG Export Plug-In . SVG Version: 6.00 Build 0)  -->
<!DOCTYPE svg PUBLIC "-//W3C//DTD SVG 1.1//EN" "http://www.w3.org/Graphics/SVG/1.1/DTD/svg11.dtd">
<svg version="1.1" id="图层_1" xmlns="http://www.w3.org/2000/svg" xmlns:xlink="http://www.w3.org/1999/xlink" x="0px" y="0px"
	 width="16px" height="32px" viewBox="0 0 16 32" enable-background="new 0 0 16 32" xml:space="preserve">
<g>
	<path fill="#DDDDDD" d="M9.169,2.636h6.078c0.393,0,0.712-0.318,0.712-0.713c0-0.391-0.319-0.709-0.712-0.709H9.168
		c-0.391,0-0.71,0.318-0.71,0.709C8.458,2.317,8.777,2.636,9.169,2.636L9.169,2.636z M15.247,4.98H9.168
		c-0.391,0-0.71,0.318-0.71,0.711c0,0.392,0.317,0.71,0.71,0.71h6.079c0.393,0,0.712-0.318,0.712-0.71
		C15.958,5.299,15.64,4.98,15.247,4.98L15.247,4.98z M5.408,0.769H0.751c-0.392,0-0.71,0.318-0.71,0.711v4.655h0.01
		c0,0.393,0.318,0.711,0.71,0.711h4.647c0.392,0,0.711-0.317,0.711-0.711h0.004V1.479H6.119C6.119,1.087,5.8,0.769,5.408,0.769
		L5.408,0.769z M1.472,2.19h3.22v3.234h-3.22V2.19z M15.247,10.367H9.168c-0.391,0-0.71,0.317-0.71,0.71
		c0,0.394,0.317,0.711,0.71,0.711h6.079c0.393,0,0.712-0.317,0.712-0.711C15.958,10.685,15.64,10.367,15.247,10.367L15.247,10.367z
		 M15.247,14.134H9.168c-0.391,0-0.71,0.317-0.71,0.711c0,0.393,0.317,0.711,0.71,0.711h6.079c0.393,0,0.712-0.318,0.712-0.711
		C15.958,14.451,15.64,14.134,15.247,14.134L15.247,14.134z M5.408,9.923H0.751c-0.392,0-0.71,0.317-0.71,0.711v4.656h0.01
		c0,0.392,0.318,0.71,0.71,0.71h4.647c0.392,0,0.711-0.317,0.711-0.71h0.004v-4.656H6.119C6.119,10.24,5.8,9.923,5.408,9.923
		L5.408,9.923z M1.472,11.344h3.22v3.233h-3.22V11.344z"/>
</g>
<g>
	<path fill="#ED7137" d="M9.169,18.636h6.078c0.393,0,0.712-0.318,0.712-0.713c0-0.391-0.319-0.709-0.712-0.709H9.168
		c-0.391,0-0.71,0.318-0.71,0.709C8.458,18.317,8.777,18.636,9.169,18.636L9.169,18.636z M15.247,20.98H9.168
		c-0.391,0-0.71,0.318-0.71,0.711c0,0.392,0.317,0.71,0.71,0.71h6.079c0.393,0,0.712-0.318,0.712-0.71
		C15.958,21.299,15.64,20.98,15.247,20.98L15.247,20.98z M5.408,16.769H0.751c-0.392,0-0.71,0.318-0.71,0.711v4.655h0.01
		c0,0.393,0.318,0.711,0.71,0.711h4.647c0.392,0,0.711-0.317,0.711-0.711h0.004v-4.655H6.119C6.119,17.087,5.8,16.769,5.408,16.769
		L5.408,16.769z M1.472,18.19h3.22v3.234h-3.22V18.19z M15.247,26.367H9.168c-0.391,0-0.71,0.317-0.71,0.71
		c0,0.394,0.317,0.711,0.71,0.711h6.079c0.393,0,0.712-0.317,0.712-0.711C15.958,26.685,15.64,26.367,15.247,26.367L15.247,26.367z
		 M15.247,30.134H9.168c-0.391,0-0.71,0.317-0.71,0.711c0,0.393,0.317,0.711,0.71,0.711h6.079c0.393,0,0.712-0.318,0.712-0.711
		C15.958,30.451,15.64,30.134,15.247,30.134L15.247,30.134z M5.408,25.923H0.751c-0.392,0-0.71,0.317-0.71,0.711v4.656h0.01
		c0,0.392,0.318,0.71,0.71,0.71h4.647c0.392,0,0.711-0.317,0.711-0.71h0.004v-4.656H6.119C6.119,26.24,5.8,25.923,5.408,25.923
		L5.408,25.923z M1.472,27.344h3.22v3.233h-3.22V27.344z"/>
</g>
</svg>
