<?xml version="1.0" encoding="utf-8"?>
<!-- Generator: Adobe Illustrator 16.0.0, SVG Export Plug-In . SVG Version: 6.00 Build 0)  -->
<!DOCTYPE svg PUBLIC "-//W3C//DTD SVG 1.1//EN" "http://www.w3.org/Graphics/SVG/1.1/DTD/svg11.dtd">
<svg version="1.1" id="图层_1" xmlns="http://www.w3.org/2000/svg" xmlns:xlink="http://www.w3.org/1999/xlink" x="0px" y="0px"
	 width="24px" height="48px" viewBox="0 0 24 48" enable-background="new 0 0 24 48" xml:space="preserve">
<g display="none">
	<g display="inline">
		<g>
			<path fill="#DCDDDD" d="M12,3.829l8,8V21h-4v-5l-2-2h-4l-2,2v5H4v-9.171L12,3.829 M12,1L2,11v12h8v-7h4v7h8V11L12,1L12,1z"/>
		</g>
	</g>
</g>
<g display="none">
	<g display="inline">
		<g>
			<path fill="#FF7432" d="M12,27.828l8,8V45h-4v-5l-2-2h-4l-2,2v5H4v-9.172L12,27.828 M12,25L2,35v12h8v-7h4v7h8V35L12,25L12,25z"
				/>
		</g>
	</g>
</g>
<path display="none" fill="#ED7137" d="M20.063,36.544c-0.274,0-0.545,0.03-0.805,0.084l-2.238-2.837
	c1.578-0.818,2.674-2.454,2.674-4.354c0-2.713-2.209-4.922-4.924-4.922c-2.713,0-4.921,2.207-4.921,4.922
	c0,1.492,0.681,2.813,1.731,3.719l-3.107,3.107c-0.776-0.375-1.644-0.593-2.563-0.593c-3.258,0-5.908,2.649-5.908,5.908
	c0,3.258,2.65,5.905,5.908,5.905c3.258,0,5.908-2.647,5.908-5.905c0-1.621-0.657-3.091-1.717-4.158l3.282-3.282
	c0.443,0.131,0.902,0.223,1.39,0.223c0.061,0,0.117-0.017,0.178-0.019l2.523,3.198c-0.818,0.723-1.349,1.768-1.349,2.941
	c0,2.174,1.769,3.938,3.938,3.938c2.172,0,3.938-1.766,3.938-3.938C24.001,38.313,22.234,36.544,20.063,36.544z M5.909,45.518
	c-2.172,0-3.938-1.768-3.938-3.938s1.767-3.938,3.938-3.938c2.171,0,3.938,1.768,3.938,3.938S8.081,45.518,5.909,45.518z
	 M14.771,32.393c-1.629,0-2.955-1.326-2.955-2.955c0-1.627,1.326-2.953,2.955-2.953s2.953,1.324,2.953,2.953
	S16.398,32.393,14.771,32.393z M20.063,42.452c-1.086,0-1.971-0.886-1.971-1.972c0-0.727,0.4-1.354,0.988-1.694
	c0.074-0.033,0.146-0.072,0.221-0.119c0.234-0.101,0.49-0.151,0.762-0.151c1.086,0,1.97,0.883,1.97,1.969
	C22.032,41.566,21.148,42.452,20.063,42.452z"/>
<path display="none" fill="#DCDDDD" d="M20.063,12.544c-0.274,0-0.545,0.03-0.805,0.084L17.02,9.791
	c1.578-0.819,2.674-2.454,2.674-4.354c0-2.713-2.209-4.922-4.924-4.922c-2.713,0-4.921,2.207-4.921,4.922
	c0,1.492,0.681,2.814,1.731,3.719l-3.107,3.107c-0.776-0.375-1.644-0.592-2.563-0.592c-3.258,0-5.908,2.65-5.908,5.908
	c0,3.258,2.65,5.906,5.908,5.906c3.258,0,5.908-2.648,5.908-5.906c0-1.621-0.657-3.091-1.717-4.158l3.282-3.283
	c0.443,0.131,0.902,0.223,1.39,0.223c0.061,0,0.117-0.016,0.178-0.018l2.523,3.198c-0.818,0.722-1.349,1.767-1.349,2.942
	c0,2.173,1.769,3.938,3.938,3.938c2.172,0,3.938-1.766,3.938-3.938C24.001,14.312,22.234,12.544,20.063,12.544z M5.909,21.517
	c-2.172,0-3.938-1.767-3.938-3.938s1.767-3.938,3.938-3.938c2.171,0,3.938,1.767,3.938,3.938S8.081,21.517,5.909,21.517z
	 M14.771,8.392c-1.629,0-2.955-1.326-2.955-2.955c0-1.627,1.326-2.953,2.955-2.953s2.953,1.324,2.953,2.953
	S16.398,8.392,14.771,8.392z M20.063,18.452c-1.086,0-1.971-0.885-1.971-1.971c0-0.727,0.4-1.354,0.988-1.695
	c0.074-0.033,0.146-0.072,0.221-0.119c0.234-0.1,0.49-0.152,0.762-0.152c1.086,0,1.97,0.883,1.97,1.969
	C22.032,17.567,21.148,18.452,20.063,18.452z"/>
<g>
	<path fill="#DCDDDD" d="M23.979,13.509v-0.013c0-0.06-0.022-0.11-0.033-0.166c-0.012-0.058-0.01-0.114-0.032-0.17l-0.004-0.013
		c0,0-0.002-0.002-0.002-0.004L18.822,0.583c-0.139-0.34-0.467-0.562-0.834-0.562H4.963c-0.39,0-0.736,0.252-0.855,0.624
		L0.065,13.222c-0.015,0.047-0.009,0.094-0.016,0.141c-0.007,0.046-0.027,0.087-0.027,0.135v9.582c0,0.497,0.402,0.899,0.898,0.899
		h22.16c0.496,0,0.898-0.402,0.898-0.899v-9.564C23.979,13.513,23.979,13.51,23.979,13.509z M5.618,1.818h11.765l4.365,10.779
		h-5.256c-0.496,0-0.898,0.402-0.898,0.898v2.695H8.407v-2.695c0-0.496-0.402-0.898-0.898-0.898H2.153L5.618,1.818z M22.182,22.181
		H1.819v-7.785h4.791v2.694c0,0.496,0.404,0.898,0.898,0.898h8.984c0.496,0,0.898-0.402,0.898-0.898v-2.694h4.791V22.181
		L22.182,22.181z"/>
	<path fill="#DCDDDD" d="M5.412,10.204h12.576c0.496,0,0.898-0.402,0.898-0.898c0-0.496-0.402-0.898-0.898-0.898H5.412
		c-0.496,0-0.898,0.403-0.898,0.898C4.514,9.8,4.917,10.204,5.412,10.204z"/>
	<path fill="#DCDDDD" d="M6.609,6.609h10.182c0.496,0,0.898-0.402,0.898-0.898s-0.402-0.898-0.898-0.898H6.609
		c-0.496,0-0.897,0.403-0.897,0.898C5.711,6.208,6.113,6.609,6.609,6.609z"/>
</g>
<g>
	<path fill="#FF7432" d="M23.979,37.488v-0.014c0-0.059-0.022-0.109-0.033-0.166c-0.012-0.057-0.01-0.113-0.032-0.17l-0.004-0.012
		c0,0-0.002-0.002-0.002-0.004l-5.085-12.561C18.684,24.222,18.355,24,17.988,24H4.963c-0.39,0-0.736,0.252-0.855,0.624
		L0.065,37.201c-0.015,0.047-0.009,0.094-0.016,0.141c-0.007,0.045-0.027,0.086-0.027,0.135v9.582c0,0.496,0.402,0.898,0.898,0.898
		h22.16c0.496,0,0.898-0.402,0.898-0.898v-9.564C23.979,37.492,23.979,37.488,23.979,37.488z M5.618,25.797h11.765l4.365,10.779
		h-5.256c-0.496,0-0.898,0.402-0.898,0.898v2.695H8.407v-2.695c0-0.496-0.402-0.898-0.898-0.898H2.153L5.618,25.797z M22.182,46.16
		H1.819v-7.785h4.791v2.693c0,0.496,0.404,0.898,0.898,0.898h8.984c0.496,0,0.898-0.402,0.898-0.898v-2.693h4.791V46.16
		L22.182,46.16z"/>
	<path fill="#FF7432" d="M5.412,34.182h12.576c0.496,0,0.898-0.402,0.898-0.897c0-0.496-0.402-0.897-0.898-0.897H5.412
		c-0.496,0-0.898,0.402-0.898,0.897S4.917,34.182,5.412,34.182z"/>
	<path fill="#FF7432" d="M6.609,30.588h10.182c0.496,0,0.898-0.402,0.898-0.898s-0.402-0.897-0.898-0.897H6.609
		c-0.496,0-0.897,0.403-0.897,0.897C5.711,30.186,6.113,30.588,6.609,30.588z"/>
</g>
</svg>
