<?xml version="1.0" encoding="utf-8"?>
<!-- Generator: Adobe Illustrator 16.0.0, SVG Export Plug-In . SVG Version: 6.00 Build 0)  -->
<!DOCTYPE svg PUBLIC "-//W3C//DTD SVG 1.1//EN" "http://www.w3.org/Graphics/SVG/1.1/DTD/svg11.dtd">
<svg version="1.1" id="图层_2" xmlns="http://www.w3.org/2000/svg" xmlns:xlink="http://www.w3.org/1999/xlink" x="0px" y="0px"
	 width="24px" height="48px" viewBox="0 0 24 48" enable-background="new 0 0 24 48" xml:space="preserve">
<g>
	<g>
		<path fill="#FF7432" d="M12,26c4.411,0,8,3.589,8,8s-3.589,8-8,8s-8-3.589-8-8S7.589,26,12,26 M12,24C6.478,24,2,28.477,2,34
			s4.478,10,10,10s10-4.477,10-10S17.522,24,12,24L12,24z"/>
	</g>
	
		<polyline fill-rule="evenodd" clip-rule="evenodd" fill="none" stroke="#FF7432" stroke-width="2" stroke-linecap="round" stroke-linejoin="bevel" stroke-miterlimit="10" points="
		8,42 6,47 18,47 16,42 	"/>
	<g>
		<path fill="#FF7432" d="M12,31c1.654,0,3,1.346,3,3s-1.346,3-3,3s-3-1.346-3-3S10.346,31,12,31 M12,29c-2.757,0-5,2.242-5,5
			s2.243,5,5,5s5-2.242,5-5S14.757,29,12,29L12,29z"/>
	</g>
</g>
<g>
	<g>
		<path fill="#DDDDDD" d="M12,2c4.411,0,8,3.589,8,8s-3.589,8-8,8s-8-3.589-8-8S7.589,2,12,2 M12,0C6.478,0,2,4.477,2,10
			s4.478,10,10,10s10-4.477,10-10S17.522,0,12,0L12,0z"/>
	</g>
	
		<polyline fill-rule="evenodd" clip-rule="evenodd" fill="none" stroke="#DDDDDD" stroke-width="2" stroke-linecap="round" stroke-linejoin="bevel" stroke-miterlimit="10" points="
		8,18 6,23 18,23 16,18 	"/>
	<g>
		<path fill="#DDDDDD" d="M12,7c1.654,0,3,1.346,3,3s-1.346,3-3,3s-3-1.346-3-3S10.346,7,12,7 M12,5c-2.757,0-5,2.242-5,5
			s2.243,5,5,5s5-2.242,5-5S14.757,5,12,5L12,5z"/>
	</g>
</g>
</svg>
