<?xml version="1.0" encoding="utf-8"?>
<!-- Generator: Adobe Illustrator 16.0.0, SVG Export Plug-In . SVG Version: 6.00 Build 0)  -->
<!DOCTYPE svg PUBLIC "-//W3C//DTD SVG 1.1//EN" "http://www.w3.org/Graphics/SVG/1.1/DTD/svg11.dtd">
<svg version="1.1" id="图层_1" xmlns="http://www.w3.org/2000/svg" xmlns:xlink="http://www.w3.org/1999/xlink" x="0px" y="0px"
	 width="24px" height="48px" viewBox="0 0 24 48" enable-background="new 0 0 24 48" xml:space="preserve">
<g>
	<g>
		<path fill="#DCDDDD" d="M12.895,24H11.1c-0.951,0-1.74-0.711-1.84-1.656l-0.201-1.898c-0.334-0.125-0.668-0.264-0.99-0.422
			l-1.484,1.213c-0.33,0.271-0.746,0.418-1.17,0.418l0,0c-0.494,0-0.958-0.192-1.308-0.543l-1.222-1.221
			c-0.672-0.68-0.724-1.744-0.124-2.479l1.208-1.484c-0.15-0.316-0.287-0.646-0.406-0.977l-1.913-0.215
			C0.709,14.637,0,13.846,0,12.898v-1.799c0-0.95,0.712-1.741,1.656-1.839l1.911-0.204C3.691,8.73,3.828,8.411,3.979,8.094
			l-1.22-1.5c-0.601-0.736-0.55-1.799,0.119-2.473l1.224-1.236C4.75,2.229,5.871,2.17,6.587,2.755L8.072,3.97
			c0.324-0.155,0.652-0.296,0.988-0.418L9.26,1.655C9.359,0.711,10.15,0,11.1,0h1.795c0.949,0,1.742,0.712,1.84,1.655l0.203,1.901
			c0.326,0.125,0.646,0.265,0.97,0.418l1.491-1.221c0.718-0.586,1.834-0.529,2.483,0.123l1.24,1.24
			c0.677,0.676,0.729,1.743,0.121,2.481l-1.22,1.491c0.152,0.331,0.291,0.645,0.414,0.966l1.906,0.206
			C23.288,9.359,24,10.15,24,11.099v1.799c0,0.94-0.708,1.731-1.646,1.838l-1.914,0.211c-0.121,0.328-0.264,0.65-0.414,0.967
			l1.215,1.492c0.609,0.74,0.553,1.811-0.131,2.486l-1.236,1.225c-0.648,0.645-1.762,0.699-2.471,0.119l-1.482-1.213
			c-0.33,0.156-0.654,0.297-0.984,0.418l-0.201,1.903C14.635,23.289,13.844,24,12.895,24z M8.07,18.182
			c0.272,0,0.548,0.062,0.796,0.178c0.271,0.134,0.544,0.246,0.821,0.349c0.66,0.24,1.133,0.847,1.207,1.545l0.201,1.897
			l1.799,0.005v0.924v-0.924c0.002,0,0.004-0.003,0.004-0.003l0.205-1.905c0.071-0.69,0.541-1.297,1.195-1.537
			c0.276-0.103,0.547-0.221,0.814-0.351c0.645-0.307,1.438-0.207,1.977,0.236l1.479,1.211l1.244-1.227l-1.215-1.488
			c-0.453-0.555-0.545-1.328-0.236-1.973c0.127-0.266,0.244-0.537,0.348-0.814c0.241-0.654,0.826-1.111,1.523-1.193l1.92-0.209
			l0.002-1.802l-1.908-0.208c-0.691-0.076-1.293-0.541-1.534-1.186c-0.104-0.272-0.226-0.545-0.354-0.822
			c-0.306-0.641-0.213-1.416,0.24-1.967l1.221-1.491l-1.239-1.245L17.087,5.4c-0.54,0.444-1.336,0.541-1.969,0.243
			c-0.278-0.132-0.552-0.252-0.832-0.358C13.63,5.037,13.177,4.45,13.104,3.75l-0.205-1.9L11.1,1.846l-0.205,1.901
			c-0.074,0.696-0.545,1.301-1.201,1.54c-0.277,0.101-0.547,0.218-0.81,0.344c-0.637,0.308-1.435,0.214-1.979-0.23L5.419,4.185
			l-1.23,1.236L5.41,6.924c0.449,0.551,0.541,1.322,0.236,1.962C5.518,9.155,5.402,9.425,5.3,9.7
			c-0.249,0.661-0.837,1.116-1.535,1.191L1.85,11.095l-0.004,1.804l1.914,0.213c0.709,0.082,1.296,0.547,1.538,1.213
			c0.097,0.271,0.208,0.541,0.333,0.799c0.311,0.652,0.217,1.424-0.234,1.975l-1.207,1.48l1.22,1.229l1.49-1.211
			C7.23,18.328,7.646,18.182,8.07,18.182z M12.025,16.148c-1.162,0-2.152-0.404-2.943-1.203c-0.794-0.799-1.199-1.79-1.199-2.947
			c0-1.154,0.404-2.144,1.202-2.94c0.797-0.796,1.787-1.201,2.94-1.201c1.154,0,2.145,0.404,2.941,1.201
			c0.797,0.798,1.2,1.787,1.2,2.94c0,1.16-0.403,2.152-1.199,2.949C14.168,15.744,13.18,16.148,12.025,16.148z M12.025,9.704
			c-0.664,0-1.185,0.21-1.635,0.66c-0.451,0.451-0.66,0.97-0.66,1.635c0,0.66,0.217,1.199,0.662,1.646
			c0.444,0.449,0.963,0.658,1.633,0.658c0.666,0,1.186-0.211,1.638-0.66c0.448-0.449,0.659-0.973,0.659-1.644
			c0-0.665-0.211-1.184-0.66-1.635C13.211,9.914,12.691,9.704,12.025,9.704z"/>
	</g>
</g>
<g>
	<g>
		<path fill="#FF7432" d="M12.895,48H11.1c-0.951,0-1.74-0.711-1.84-1.656l-0.201-1.898c-0.334-0.125-0.668-0.264-0.99-0.422
			l-1.484,1.213c-0.33,0.271-0.746,0.418-1.17,0.418l0,0c-0.494,0-0.958-0.192-1.308-0.543l-1.222-1.221
			c-0.672-0.68-0.724-1.744-0.124-2.479l1.208-1.484c-0.15-0.316-0.287-0.646-0.406-0.977l-1.913-0.215
			C0.709,38.637,0,37.846,0,36.898V35.1c0-0.951,0.712-1.742,1.656-1.84l1.911-0.203c0.124-0.326,0.261-0.646,0.412-0.963l-1.22-1.5
			c-0.601-0.736-0.55-1.799,0.119-2.473l1.224-1.236c0.648-0.656,1.769-0.715,2.485-0.13l1.485,1.215
			c0.324-0.155,0.652-0.296,0.988-0.418l0.199-1.896C9.359,24.711,10.15,24,11.1,24h1.795c0.949,0,1.742,0.712,1.84,1.655
			l0.203,1.901c0.326,0.125,0.646,0.264,0.97,0.418l1.491-1.222c0.718-0.586,1.834-0.528,2.483,0.123l1.24,1.24
			c0.677,0.676,0.729,1.743,0.121,2.481l-1.22,1.49c0.152,0.331,0.291,0.645,0.414,0.967l1.906,0.205
			C23.288,33.359,24,34.15,24,35.1v1.799c0,0.94-0.708,1.731-1.646,1.838l-1.914,0.211c-0.121,0.328-0.264,0.65-0.414,0.967
			l1.215,1.492c0.609,0.74,0.553,1.811-0.131,2.486l-1.236,1.225c-0.648,0.645-1.762,0.699-2.471,0.119l-1.482-1.213
			c-0.33,0.156-0.654,0.297-0.984,0.418l-0.201,1.903C14.635,47.289,13.844,48,12.895,48z M8.07,42.182
			c0.272,0,0.548,0.062,0.796,0.178c0.271,0.134,0.544,0.246,0.821,0.349c0.66,0.24,1.133,0.847,1.207,1.545l0.201,1.897
			l1.799,0.005v0.924v-0.924c0.002,0,0.004-0.003,0.004-0.003l0.205-1.905c0.071-0.69,0.541-1.297,1.195-1.537
			c0.276-0.103,0.547-0.221,0.814-0.351c0.645-0.307,1.438-0.207,1.977,0.236l1.479,1.211l1.244-1.227l-1.215-1.488
			c-0.453-0.555-0.545-1.328-0.236-1.973c0.127-0.266,0.244-0.537,0.348-0.814c0.241-0.654,0.826-1.111,1.523-1.193l1.92-0.209
			l0.002-1.803l-1.908-0.207c-0.691-0.076-1.293-0.541-1.534-1.187c-0.104-0.272-0.226-0.545-0.354-0.822
			c-0.306-0.641-0.213-1.416,0.24-1.967l1.221-1.491l-1.239-1.244L17.087,29.4c-0.54,0.443-1.336,0.541-1.969,0.242
			c-0.278-0.132-0.552-0.252-0.832-0.357c-0.656-0.248-1.109-0.835-1.183-1.535l-0.205-1.9L11.1,25.846l-0.205,1.901
			c-0.074,0.696-0.545,1.301-1.201,1.54c-0.277,0.102-0.547,0.218-0.81,0.344c-0.637,0.309-1.435,0.214-1.979-0.23l-1.485-1.215
			l-1.23,1.235l1.221,1.503c0.449,0.551,0.541,1.322,0.236,1.962C5.518,33.155,5.402,33.425,5.3,33.7
			c-0.249,0.661-0.837,1.116-1.535,1.19L1.85,35.095l-0.004,1.804l1.914,0.213c0.709,0.082,1.296,0.547,1.538,1.213
			c0.097,0.271,0.208,0.541,0.333,0.799c0.311,0.652,0.217,1.424-0.234,1.975l-1.207,1.48l1.22,1.229l1.49-1.211
			C7.23,42.328,7.646,42.182,8.07,42.182z M12.025,40.148c-1.162,0-2.152-0.404-2.943-1.203c-0.794-0.799-1.199-1.79-1.199-2.947
			c0-1.154,0.404-2.145,1.202-2.939c0.797-0.797,1.787-1.201,2.94-1.201c1.154,0,2.145,0.403,2.941,1.201
			c0.797,0.797,1.2,1.786,1.2,2.939c0,1.16-0.403,2.152-1.199,2.949C14.168,39.744,13.18,40.148,12.025,40.148z M12.025,33.704
			c-0.664,0-1.185,0.21-1.635,0.66c-0.451,0.45-0.66,0.97-0.66,1.635c0,0.66,0.217,1.199,0.662,1.646
			c0.444,0.449,0.963,0.658,1.633,0.658c0.666,0,1.186-0.211,1.638-0.66c0.448-0.449,0.659-0.973,0.659-1.644
			c0-0.665-0.211-1.185-0.66-1.635C13.211,33.914,12.691,33.704,12.025,33.704z"/>
	</g>
</g>
</svg>
