<?xml version="1.0" encoding="utf-8"?>
<!-- Generator: Adobe Illustrator 16.0.0, SVG Export Plug-In . SVG Version: 6.00 Build 0)  -->
<!DOCTYPE svg PUBLIC "-//W3C//DTD SVG 1.1//EN" "http://www.w3.org/Graphics/SVG/1.1/DTD/svg11.dtd">
<svg version="1.1" id="图层_1" xmlns="http://www.w3.org/2000/svg" xmlns:xlink="http://www.w3.org/1999/xlink" x="0px" y="0px"
	 width="20px" height="20px" viewBox="0 0 20 20" enable-background="new 0 0 20 20" xml:space="preserve">
<g display="none">
	<g>
		<rect x="-20" y="-19" display="inline" fill="#FFFFFF" width="1340" height="60"/>
		<rect x="-20" y="40" display="inline" fill="#DCDDDD" width="1340" height="1"/>
	</g>
	<g>
		<rect x="-20" y="-19" display="inline" fill="#FFFFFF" width="60" height="58"/>
		<rect x="39" y="-9" display="inline" fill="#DCDDDD" width="1" height="40"/>
	</g>
	<g display="inline">
		
			<line fill="none" stroke="#666666" stroke-width="2" stroke-linecap="round" stroke-miterlimit="10" x1="2" y1="3" x2="18" y2="3"/>
		
			<line fill="none" stroke="#666666" stroke-width="2" stroke-linecap="round" stroke-miterlimit="10" x1="9" y1="10" x2="18" y2="10"/>
		
			<line fill="none" stroke="#666666" stroke-width="2" stroke-linecap="round" stroke-miterlimit="10" x1="2" y1="17" x2="18" y2="17"/>
		<polygon fill="#666666" points="2,7 6,10 2,13 		"/>
	</g>
</g>
<g display="none">
	<path display="inline" fill="none" stroke="#666666" stroke-width="2" stroke-linecap="round" stroke-miterlimit="10" d="M10,3H4
		C2.896,3,2,3.896,2,5v10c0,1.104,0.896,2,2,2h6"/>
	
		<line display="inline" fill="none" stroke="#666666" stroke-width="2" stroke-linecap="round" stroke-miterlimit="10" x1="7" y1="10" x2="16" y2="10"/>
	<polyline display="inline" fill="none" stroke="#666666" stroke-width="2" stroke-linecap="round" stroke-miterlimit="10" points="
		14,6 18,10 14,14 	"/>
</g>
<g>
	
		<text transform="matrix(1 0 0 1 22 15.2144)" display="none" fill="#666666" font-family="'MicrosoftYaHei'" font-size="14" letter-spacing="1">系统管理员</text>
	<g>
		<g>
			<g>
				<path fill="#666666" d="M10,4c1.654,0,3,1.346,3,3s-1.346,3-3,3S7,8.654,7,7S8.346,4,10,4 M10,2C7.238,2,5,4.238,5,7
					s2.238,5,5,5s5-2.238,5-5S12.762,2,10,2L10,2z"/>
			</g>
			<path fill="none" stroke="#666666" stroke-width="2" stroke-miterlimit="10" d="M4,18c0-3.309,2.691-6,6-6s6,2.691,6,6"/>
		</g>
	</g>
</g>
</svg>
